<svg width="25" height="26" viewBox="0 0 25 26" fill="none" xmlns="http://www.w3.org/2000/svg">
<path id="Insta" d="M13.7854 0.949219C15.1916 0.952969 15.9053 0.960468 16.5216 0.977968L16.7641 0.986718C17.0441 0.996718 17.3203 1.00922 17.6541 1.02422C18.984 1.08672 19.8915 1.29671 20.6877 1.60545C21.5127 1.92295 22.2077 2.35294 22.9027 3.04667C23.5383 3.67153 24.0301 4.42737 24.3439 5.26162C24.6526 6.05785 24.8626 6.96533 24.9251 8.29655C24.9401 8.62904 24.9526 8.90528 24.9626 9.18653L24.9701 9.42902C24.9889 10.044 24.9964 10.7577 24.9989 12.164L25.0001 13.0964V14.7339C25.0032 15.6456 24.9936 16.5574 24.9714 17.4688L24.9639 17.7113C24.9539 17.9926 24.9414 18.2688 24.9264 18.6013C24.8639 19.9325 24.6514 20.8388 24.3439 21.6362C24.031 22.4709 23.5391 23.227 22.9027 23.8512C22.2777 24.4866 21.5219 24.9783 20.6877 25.2924C19.8915 25.6011 18.984 25.8111 17.6541 25.8736C17.3575 25.8876 17.0608 25.9001 16.7641 25.9111L16.5216 25.9186C15.9053 25.9361 15.1916 25.9449 13.7854 25.9474L12.8529 25.9486H11.2167C10.3046 25.9518 9.39241 25.9422 8.48052 25.9199L8.23803 25.9124C7.9413 25.9011 7.64463 25.8882 7.34805 25.8736C6.01808 25.8111 5.1106 25.6011 4.31312 25.2924C3.47898 24.9791 2.72343 24.4872 2.09942 23.8512C1.46324 23.2266 0.970979 22.4707 0.656956 21.6362C0.348213 20.84 0.138218 19.9325 0.0757194 18.6013C0.0617933 18.3047 0.0492934 18.008 0.0382203 17.7113L0.0319706 17.4688C0.00893622 16.5574 -0.00148132 15.6456 0.000721234 14.7339V12.164C-0.00276739 11.2522 0.00640004 10.3405 0.0282207 9.42902L0.0369704 9.18653C0.0469702 8.90528 0.0594699 8.62904 0.0744695 8.29655C0.136968 6.96533 0.346963 6.0591 0.655706 5.26162C0.969591 4.42652 1.46284 3.67043 2.10067 3.04667C2.72452 2.41103 3.47957 1.91918 4.31312 1.60545C5.1106 1.29671 6.01683 1.08672 7.34805 1.02422C7.68054 1.00922 7.95804 0.996718 8.23803 0.986718L8.48052 0.979218C9.39199 0.957009 10.3037 0.947425 11.2155 0.950469L13.7854 0.949219ZM12.5004 7.19907C10.8429 7.19907 9.25319 7.85754 8.08111 9.02961C6.90904 10.2017 6.25058 11.7914 6.25058 13.4489C6.25058 15.1065 6.90904 16.6962 8.08111 17.8682C9.25319 19.0403 10.8429 19.6988 12.5004 19.6988C14.158 19.6988 15.7477 19.0403 16.9197 17.8682C18.0918 16.6962 18.7503 15.1065 18.7503 13.4489C18.7503 11.7914 18.0918 10.2017 16.9197 9.02961C15.7477 7.85754 14.158 7.19907 12.5004 7.19907ZM12.5004 9.69901C12.9929 9.69893 13.4805 9.79585 13.9355 9.98422C14.3905 10.1726 14.8039 10.4487 15.1522 10.7969C15.5005 11.1451 15.7768 11.5584 15.9653 12.0133C16.1538 12.4682 16.2509 12.9559 16.251 13.4483C16.251 13.9407 16.1541 14.4284 15.9658 14.8834C15.7774 15.3384 15.5012 15.7518 15.1531 16.1001C14.8049 16.4483 14.3916 16.7246 13.9367 16.9132C13.4817 17.1017 12.9941 17.1988 12.5017 17.1988C11.5071 17.1988 10.5533 16.8038 9.85009 16.1005C9.14685 15.3973 8.75177 14.4435 8.75177 13.4489C8.75177 12.4544 9.14685 11.5006 9.85009 10.7973C10.5533 10.0941 11.5071 9.69901 12.5017 9.69901M19.064 5.32412C18.6496 5.32412 18.2522 5.48873 17.9592 5.78175C17.6662 6.07477 17.5016 6.47219 17.5016 6.88658C17.5016 7.30097 17.6662 7.69839 17.9592 7.99141C18.2522 8.28443 18.6496 8.44904 19.064 8.44904C19.4784 8.44904 19.8758 8.28443 20.1689 7.99141C20.4619 7.69839 20.6265 7.30097 20.6265 6.88658C20.6265 6.47219 20.4619 6.07477 20.1689 5.78175C19.8758 5.48873 19.4784 5.32412 19.064 5.32412Z" fill="#9C7A66"/>
</svg>
