<svg width="25" height="26" viewBox="0 0 25 26" fill="none" xmlns="http://www.w3.org/2000/svg">
<path id="WhatsApp" fill-rule="evenodd" clip-rule="evenodd" d="M12.5 0.949219C5.59625 0.949219 0 6.54547 0 13.4492C0 15.8117 0.65625 18.0242 1.7975 19.9092L0.6825 23.6992C0.61848 23.9168 0.614268 24.1476 0.670305 24.3674C0.726342 24.5872 0.840559 24.7879 1.00095 24.9483C1.16134 25.1086 1.36198 25.2229 1.58177 25.2789C1.80156 25.3349 2.0324 25.3307 2.25 25.2667L6.04 24.1517C7.98834 25.3306 10.2228 25.9523 12.5 25.9492C19.4037 25.9492 25 20.353 25 13.4492C25 6.54547 19.4037 0.949219 12.5 0.949219ZM9.67249 16.278C12.2012 18.8055 14.615 19.1392 15.4675 19.1705C16.7637 19.218 18.0262 18.228 18.5175 17.0792C18.5795 16.9363 18.602 16.7794 18.5827 16.6248C18.5633 16.4702 18.5028 16.3237 18.4075 16.2005C17.7225 15.3255 16.7962 14.6967 15.8912 14.0717C15.7023 13.9411 15.4701 13.8887 15.2433 13.9255C15.0166 13.9623 14.8129 14.0855 14.675 14.2692L13.925 15.413C13.8856 15.4745 13.8241 15.5185 13.7532 15.5362C13.6824 15.5539 13.6074 15.5438 13.5437 15.508C13.035 15.2167 12.2937 14.7217 11.7612 14.1892C11.2287 13.6567 10.7637 12.9492 10.5025 12.473C10.4701 12.4125 10.4607 12.3423 10.4761 12.2754C10.4915 12.2085 10.5307 12.1495 10.5862 12.1092L11.7412 11.2517C11.9061 11.1084 12.0124 10.9095 12.0401 10.6928C12.0678 10.4761 12.0148 10.2568 11.8912 10.0767C11.3312 9.25671 10.6787 8.21421 9.73249 7.52297C9.61038 7.43447 9.46732 7.37929 9.31741 7.36285C9.1675 7.34641 9.01589 7.36929 8.87749 7.42922C7.7275 7.92172 6.7325 9.18421 6.78 10.483C6.81125 11.3355 7.145 13.7492 9.67249 16.278Z" fill="#9C7A66"/>
</svg>
